<svg width="25" height="19" viewBox="0 0 25 19" fill="none" xmlns="http://www.w3.org/2000/svg">
<path d="M2.5 18.375C1.8125 18.375 1.22417 18.161 0.735 17.733C0.245833 17.3049 0.000833333 16.7898 0 16.1875V3.0625C0 2.46094 0.245 1.94615 0.735 1.51812C1.225 1.0901 1.81333 0.875729 2.5 0.875H22.5C23.1875 0.875 23.7763 1.08937 24.2663 1.51812C24.7563 1.94687 25.0008 2.46167 25 3.0625V16.1875C25 16.7891 24.7554 17.3042 24.2663 17.733C23.7771 18.1617 23.1883 18.3757 22.5 18.375H2.5ZM12.5 10.7188L22.5 5.25V3.0625L12.5 8.53125L2.5 3.0625V5.25L12.5 10.7188Z" fill="#E5E5E6" fill-opacity="0.61"/>
</svg>
