<svg width="30" height="30" viewBox="0 0 30 30" fill="none" xmlns="http://www.w3.org/2000/svg">
<path d="M15 16.25V5C15 4.64583 15.12 4.34917 15.36 4.11C15.6 3.87083 15.8967 3.75083 16.25 3.75H25C25.3542 3.75 25.6512 3.87 25.8912 4.11C26.1312 4.35 26.2508 4.64667 26.25 5V11.25C26.25 11.6042 26.13 11.9013 25.89 12.1413C25.65 12.3813 25.3533 12.5008 25 12.5H18.75L15 16.25ZM24.9375 26.25C22.3333 26.25 19.7604 25.6825 17.2188 24.5475C14.6771 23.4125 12.3646 21.8029 10.2813 19.7188C8.19792 17.6354 6.58875 15.3229 5.45375 12.7812C4.31875 10.2396 3.75083 7.66667 3.75 5.0625C3.75 4.6875 3.875 4.375 4.125 4.125C4.375 3.875 4.6875 3.75 5.0625 3.75H10.125C10.4167 3.75 10.6771 3.84917 10.9063 4.0475C11.1354 4.24583 11.2708 4.48 11.3125 4.75L12.125 9.125C12.1667 9.45833 12.1562 9.73958 12.0938 9.96875C12.0312 10.1979 11.9167 10.3958 11.75 10.5625L8.71875 13.625C9.13542 14.3958 9.63 15.1404 10.2025 15.8588C10.775 16.5771 11.4054 17.27 12.0938 17.9375C12.7396 18.5833 13.4167 19.1825 14.125 19.735C14.8333 20.2875 15.5833 20.7925 16.375 21.25L19.3125 18.3125C19.5 18.125 19.745 17.9846 20.0475 17.8912C20.35 17.7979 20.6467 17.7717 20.9375 17.8125L25.25 18.6875C25.5417 18.7708 25.7812 18.9221 25.9688 19.1412C26.1562 19.3604 26.25 19.605 26.25 19.875V24.9375C26.25 25.3125 26.125 25.625 25.875 25.875C25.625 26.125 25.3125 26.25 24.9375 26.25Z" fill="#E5E5E5" fill-opacity="0.61"/>
</svg>
