<?xml version="1.0" encoding="utf-8"?>
<!-- Generator: Adobe Illustrator 25.4.1, SVG Export Plug-In . SVG Version: 6.00 Build 0)  -->
<svg version="1.1" id="Layer_1" xmlns="http://www.w3.org/2000/svg" xmlns:xlink="http://www.w3.org/1999/xlink" x="0px" y="0px"
	 viewBox="0 0 1000 1000" style="enable-background:new 0 0 1000 1000;" xml:space="preserve">
<style type="text/css">
	.st0{fill-rule:evenodd;clip-rule:evenodd;}
	
		.st1{clip-path:url(#SVGID_00000041277696795522048290000001179883432075060149_);fill:url(#SVGID_00000149341536267238173080000017444385334886575551_);}
	.st2{filter:url(#Adobe_OpacityMaskFilter);}
	.st3{fill:url(#SVGID_00000127016927729630965070000003146453032176919968_);}
	.st4{mask:url(#SVGID_00000018207248877712224110000008665938182275000723_);fill-rule:evenodd;clip-rule:evenodd;fill:#FCE2A6;}
	
		.st5{clip-path:url(#SVGID_00000153689532242324479570000010787633302033891459_);fill:url(#SVGID_00000109013170718008603800000002993658079519300245_);}
	.st6{filter:url(#Adobe_OpacityMaskFilter_00000183928932823408764860000003264361791314379168_);}
	.st7{fill:url(#SVGID_00000032633430007034830420000005760095437358811288_);}
	.st8{mask:url(#SVGID_00000038371881008280885120000017962589105494947214_);fill-rule:evenodd;clip-rule:evenodd;fill:#5E2C0B;}
	.st9{filter:url(#Adobe_OpacityMaskFilter_00000150784337186987704600000013820576931820376742_);}
	.st10{fill:url(#SVGID_00000176007093208471114220000005330460209497428389_);}
	.st11{mask:url(#SVGID_00000144338110757653531160000013131842585602293672_);fill-rule:evenodd;clip-rule:evenodd;fill:#FCE2A6;}
	
		.st12{clip-path:url(#SVGID_00000127004062535077616700000010699388168584212118_);fill:url(#SVGID_00000106833958044784476360000015873569764500904611_);}
	.st13{filter:url(#Adobe_OpacityMaskFilter_00000089543230331980293530000000777537269442643874_);}
	.st14{fill:url(#SVGID_00000116957240852126346470000015398547609721709463_);}
	.st15{mask:url(#SVGID_00000152234672482666923160000011082188626537381017_);fill-rule:evenodd;clip-rule:evenodd;fill:#FCE2A6;}
	
		.st16{clip-path:url(#SVGID_00000098917835316038396570000004015159855480597427_);fill:url(#SVGID_00000081608059542913411190000010593457801898743468_);}
	.st17{filter:url(#Adobe_OpacityMaskFilter_00000056402214267998844740000010637455252128122264_);}
	.st18{fill:url(#SVGID_00000111907154527968775740000003858636550968339333_);}
	.st19{mask:url(#SVGID_00000160167015590115362810000010474474678137768351_);fill-rule:evenodd;clip-rule:evenodd;fill:#FFF000;}
	.st20{font-family:'MyriadPro-Regular';}
	.st21{font-size:12px;}
</style>
<g>
	<rect class="st0" width="1000" height="1000"/>
	<g>
		<defs>
			<path id="SVGID_1_" d="M1501.33,2702.85c19.22-501.42,108.46-910.27,267.73-1226.57c71.29-141.58,156.62-264.62,255.97-369.11
				c-156.86-61.85-328.7-164.14-515.52-306.86C1199.63,1395.94,1196.58,2104.58,1501.33,2702.85"/>
		</defs>
		<clipPath id="SVGID_00000028296171132089698630000014032086783924254120_">
			<use xlink:href="#SVGID_1_"  style="overflow:visible;"/>
		</clipPath>
		
			<linearGradient id="SVGID_00000129191747183887419290000007181347027134403988_" gradientUnits="userSpaceOnUse" x1="1284.6686" y1="1751.5714" x2="2025.0316" y2="1751.6016">
			<stop  offset="0" style="stop-color:#6E3C1B"/>
			<stop  offset="0.33" style="stop-color:#F8BE3B"/>
			<stop  offset="0.49" style="stop-color:#FCE2A6"/>
			<stop  offset="0.7" style="stop-color:#F8BE3B"/>
			<stop  offset="1" style="stop-color:#6E3C1B"/>
		</linearGradient>
		
			<rect x="1196.58" y="800.32" style="clip-path:url(#SVGID_00000028296171132089698630000014032086783924254120_);fill:url(#SVGID_00000129191747183887419290000007181347027134403988_);" width="828.46" height="1902.54"/>
	</g>
	<defs>
		<filter id="Adobe_OpacityMaskFilter" filterUnits="userSpaceOnUse" x="1274.91" y="800.32" width="482.14" height="1902.54">
			<feColorMatrix  type="matrix" values="1 0 0 0 0  0 1 0 0 0  0 0 1 0 0  0 0 0 1 0"/>
		</filter>
	</defs>
	
		<mask maskUnits="userSpaceOnUse" x="1274.91" y="800.32" width="482.14" height="1902.54" id="SVGID_00000132064717364479958260000000712779254173176495_">
		<g class="st2">
			
				<linearGradient id="SVGID_00000111898763481948471430000002044889110818610828_" gradientUnits="userSpaceOnUse" x1="-1407.7896" y1="5562.7915" x2="-1011.9981" y2="4125.4878" gradientTransform="matrix(1 0 0 1 2787.9001 -3317.7771)">
				<stop  offset="0" style="stop-color:#FFFFFF"/>
				<stop  offset="1" style="stop-color:#000000"/>
			</linearGradient>
			
				<rect x="1274.91" y="800.32" style="fill:url(#SVGID_00000111898763481948471430000002044889110818610828_);" width="482.14" height="1902.54"/>
		</g>
	</mask>
	
		<path style="mask:url(#SVGID_00000132064717364479958260000000712779254173176495_);fill-rule:evenodd;clip-rule:evenodd;fill:#FCE2A6;" d="
		M1501.33,2702.85c-156.3-587.86-63.82-1214.13,255.73-1731.71c-79.37-48.44-161.88-105.38-247.55-170.83
		C1199.63,1395.94,1196.58,2104.58,1501.33,2702.85"/>
	<g>
		<defs>
			<path id="SVGID_00000047759878697078575320000003481449685262642822_" d="M1769.07,1476.28
				c114.31,140.83,172.14,361.37,173.48,661.61c8.24-243.91,103.98-480.09,274.79-662.48c-26.9-118.85-91-241.6-192.3-368.23
				C1925.68,1211.67,1840.36,1334.7,1769.07,1476.28"/>
		</defs>
		<clipPath id="SVGID_00000103249650269564842160000007292382032628561831_">
			<use xlink:href="#SVGID_00000047759878697078575320000003481449685262642822_"  style="overflow:visible;"/>
		</clipPath>
		
			<linearGradient id="SVGID_00000134964879390505499630000014791059850796880046_" gradientUnits="userSpaceOnUse" x1="1774.8937" y1="1622.5337" x2="2217.3293" y2="1622.5337">
			<stop  offset="0" style="stop-color:#6E3C1B"/>
			<stop  offset="0.33" style="stop-color:#F8BE3B"/>
			<stop  offset="0.49" style="stop-color:#FCE2A6"/>
			<stop  offset="0.7" style="stop-color:#F8BE3B"/>
			<stop  offset="1" style="stop-color:#6E3C1B"/>
		</linearGradient>
		
			<rect x="1769.07" y="1107.18" style="clip-path:url(#SVGID_00000103249650269564842160000007292382032628561831_);fill:url(#SVGID_00000134964879390505499630000014791059850796880046_);" width="448.27" height="1030.71"/>
	</g>
	<defs>
		
			<filter id="Adobe_OpacityMaskFilter_00000116934954489742229930000006303921092765146000_" filterUnits="userSpaceOnUse" x="1769.07" y="1107.18" width="291.29" height="430.44">
			<feColorMatrix  type="matrix" values="1 0 0 0 0  0 1 0 0 0  0 0 1 0 0  0 0 0 1 0"/>
		</filter>
	</defs>
	
		<mask maskUnits="userSpaceOnUse" x="1769.07" y="1107.18" width="291.29" height="430.44" id="SVGID_00000034781541685112899720000005124316332256290442_">
		<g style="filter:url(#Adobe_OpacityMaskFilter_00000116934954489742229930000006303921092765146000_);">
			
				<linearGradient id="SVGID_00000138569641995066923740000000449844067556731281_" gradientUnits="userSpaceOnUse" x1="-991.1344" y1="4823.7632" x2="-1087.4624" y2="5248.1919" gradientTransform="matrix(1 0 0 1 2952.0044 -3704.7456)">
				<stop  offset="0" style="stop-color:#FFFFFF"/>
				<stop  offset="1" style="stop-color:#000000"/>
			</linearGradient>
			
				<rect x="1769.07" y="1107.18" style="fill:url(#SVGID_00000138569641995066923740000000449844067556731281_);" width="291.29" height="430.44"/>
		</g>
	</mask>
	
		<path style="mask:url(#SVGID_00000034781541685112899720000005124316332256290442_);fill-rule:evenodd;clip-rule:evenodd;fill:#5E2C0B;" d="
		M1812.24,1537.61c48.97-147,134.32-279.23,248.12-384.39c-11.22-15.29-23-30.64-35.32-46.05
		c-99.35,104.49-184.68,227.52-255.97,369.11C1784.48,1495.28,1798.87,1515.72,1812.24,1537.61"/>
	<defs>
		
			<filter id="Adobe_OpacityMaskFilter_00000075147044874840542720000002582486552717987214_" filterUnits="userSpaceOnUse" x="1933.72" y="1153.23" width="283.62" height="712.07">
			<feColorMatrix  type="matrix" values="1 0 0 0 0  0 1 0 0 0  0 0 1 0 0  0 0 0 1 0"/>
		</filter>
	</defs>
	
		<mask maskUnits="userSpaceOnUse" x="1933.72" y="1153.23" width="283.62" height="712.07" id="SVGID_00000111898288723037231560000007154646318153581239_">
		<g style="filter:url(#Adobe_OpacityMaskFilter_00000075147044874840542720000002582486552717987214_);">
			
				<linearGradient id="SVGID_00000122717923543671732020000005606167250182400433_" gradientUnits="userSpaceOnUse" x1="-949.7632" y1="5311.7227" x2="-910.7081" y2="4878.1704" gradientTransform="matrix(1 0 0 1 3006.6836 -3595.9248)">
				<stop  offset="0" style="stop-color:#FFFFFF"/>
				<stop  offset="1" style="stop-color:#000000"/>
			</linearGradient>
			
				<rect x="1933.72" y="1153.23" style="fill:url(#SVGID_00000122717923543671732020000005606167250182400433_);" width="283.62" height="712.07"/>
		</g>
	</mask>
	
		<path style="mask:url(#SVGID_00000111898288723037231560000007154646318153581239_);fill-rule:evenodd;clip-rule:evenodd;fill:#FCE2A6;" d="
		M1933.72,1297.57c72.1,104.82,90.63,294.06,55.58,567.72c45.24-143.3,122.24-276.91,228.04-389.89
		c-23.63-104.39-75.96-211.79-156.98-322.18C2013.03,1196.95,1970.63,1245.37,1933.72,1297.57"/>
	<g>
		<defs>
			<path id="SVGID_00000053515527046737024180000017249645705104761216_" d="M2638.76,1598.15c27.74-34.38,62.65-62.31,102.28-81.83
				c-253.68-147.3-380.51-220.95-380.51-220.95c-53.91,47.96-101.64,107.97-143.2,180.03c-105.8,112.97-182.8,246.58-228.04,389.89
				c-27.8,88.05-43.61,179.76-46.75,272.59c0,0.01,0,0.02,0,0.03c-2.94,87.1,5.28,175.18,25.21,262.16
				c226.4-139.11,339.59-208.67,339.59-208.67C2367.35,1832.99,2477.82,1635.24,2638.76,1598.15"/>
		</defs>
		<clipPath id="SVGID_00000008116611649110303370000016046697612645239741_">
			<use xlink:href="#SVGID_00000053515527046737024180000017249645705104761216_"  style="overflow:visible;"/>
		</clipPath>
		
			<linearGradient id="SVGID_00000142154901147433398400000010128212444789792699_" gradientUnits="userSpaceOnUse" x1="1952.3419" y1="1847.7008" x2="2741.0344" y2="1847.7611">
			<stop  offset="0" style="stop-color:#6E3C1B"/>
			<stop  offset="0.33" style="stop-color:#F8BE3B"/>
			<stop  offset="0.49" style="stop-color:#FCE2A6"/>
			<stop  offset="0.7" style="stop-color:#F8BE3B"/>
			<stop  offset="1" style="stop-color:#6E3C1B"/>
		</linearGradient>
		
			<rect x="1939.6" y="1295.38" style="clip-path:url(#SVGID_00000008116611649110303370000016046697612645239741_);fill:url(#SVGID_00000142154901147433398400000010128212444789792699_);" width="801.44" height="1104.7"/>
	</g>
	<defs>
		
			<filter id="Adobe_OpacityMaskFilter_00000154384521523853002420000009624851828038635687_" filterUnits="userSpaceOnUse" x="1967.46" y="1516.33" width="773.59" height="883.75">
			<feColorMatrix  type="matrix" values="1 0 0 0 0  0 1 0 0 0  0 0 1 0 0  0 0 0 1 0"/>
		</filter>
	</defs>
	
		<mask maskUnits="userSpaceOnUse" x="1967.46" y="1516.33" width="773.59" height="883.75" id="SVGID_00000161615323295780846530000010764277076737109183_">
		<g style="filter:url(#Adobe_OpacityMaskFilter_00000154384521523853002420000009624851828038635687_);">
			
				<linearGradient id="SVGID_00000098204089458494713450000014772792860052965008_" gradientUnits="userSpaceOnUse" x1="-1626.042" y1="6884.9946" x2="-478.1737" y2="5085.8369" gradientTransform="matrix(1 0 0 1 3017.8899 -3418.3262)">
				<stop  offset="0" style="stop-color:#FFFFFF"/>
				<stop  offset="1" style="stop-color:#000000"/>
			</linearGradient>
			
				<rect x="1967.46" y="1516.33" style="fill:url(#SVGID_00000098204089458494713450000014772792860052965008_);" width="773.59" height="883.75"/>
		</g>
	</mask>
	
		<path style="mask:url(#SVGID_00000161615323295780846530000010764277076737109183_);fill-rule:evenodd;clip-rule:evenodd;fill:#FCE2A6;" d="
		M2741.05,1516.33c-448.6,48.22-785.05,432.73-773.29,883.75c226.4-139.11,339.59-208.67,339.59-208.67
		c60-358.42,170.46-556.17,331.41-593.26C2666.51,1563.77,2701.41,1535.85,2741.05,1516.33"/>
	<g>
		<defs>
			<path id="SVGID_00000050650483532686305310000000427328399734286270_" d="M2638.76,1598.15c20.5,128.17-5.41,287.73-77.74,478.7
				c107.23-40.51,190.14-127.71,225.18-236.85c35.06-109.14,18.43-228.31-45.15-323.68
				C2701.41,1535.85,2666.51,1563.77,2638.76,1598.15"/>
		</defs>
		<clipPath id="SVGID_00000075149667847758328930000003288314772831971490_">
			<use xlink:href="#SVGID_00000050650483532686305310000000427328399734286270_"  style="overflow:visible;"/>
		</clipPath>
		
			<linearGradient id="SVGID_00000174569655991732478400000004337181378280508083_" gradientUnits="userSpaceOnUse" x1="2564.189" y1="1796.5913" x2="2804.2114" y2="1796.5913">
			<stop  offset="0" style="stop-color:#6E3C1B"/>
			<stop  offset="0.33" style="stop-color:#F8BE3B"/>
			<stop  offset="0.49" style="stop-color:#FCE2A6"/>
			<stop  offset="0.7" style="stop-color:#F8BE3B"/>
			<stop  offset="1" style="stop-color:#6E3C1B"/>
		</linearGradient>
		
			<rect x="2561.02" y="1516.33" style="clip-path:url(#SVGID_00000075149667847758328930000003288314772831971490_);fill:url(#SVGID_00000174569655991732478400000004337181378280508083_);" width="260.24" height="560.53"/>
	</g>
	<defs>
		
			<filter id="Adobe_OpacityMaskFilter_00000099632027734621619010000007518763733724700850_" filterUnits="userSpaceOnUse" x="2561.02" y="1516.33" width="243.21" height="560.53">
			<feColorMatrix  type="matrix" values="1 0 0 0 0  0 1 0 0 0  0 0 1 0 0  0 0 0 1 0"/>
		</filter>
	</defs>
	
		<mask maskUnits="userSpaceOnUse" x="2561.02" y="1516.33" width="243.21" height="560.53" id="SVGID_00000156574948671874137220000012270908749123909516_">
		<g style="filter:url(#Adobe_OpacityMaskFilter_00000099632027734621619010000007518763733724700850_);">
			
				<linearGradient id="SVGID_00000123428427734804351330000003501891331791896988_" gradientUnits="userSpaceOnUse" x1="-697.5037" y1="5618.6577" x2="-437.1256" y2="5151.2598" gradientTransform="matrix(1 0 0 1 3215.0071 -3525.6667)">
				<stop  offset="0" style="stop-color:#FFFFFF"/>
				<stop  offset="1" style="stop-color:#000000"/>
			</linearGradient>
			
				<rect x="2561.02" y="1516.33" style="fill:url(#SVGID_00000123428427734804351330000003501891331791896988_);" width="243.21" height="560.53"/>
		</g>
	</mask>
	
		<path style="mask:url(#SVGID_00000156574948671874137220000012270908749123909516_);fill-rule:evenodd;clip-rule:evenodd;fill:#FFF000;" d="
		M2695.12,1544.24c68.56,183.2,12.12,402.7-134.11,532.62c107.23-40.51,190.14-127.71,225.18-236.85
		c35.06-109.14,18.43-228.31-45.15-323.68C2724.9,1524.28,2709.54,1533.62,2695.12,1544.24"/>
	<text transform="matrix(1 0 0 1 2108.7324 3038.7021)" class="st20 st21">Lorem ipsum</text>
</g>
</svg>
